<?xml version="1.0" encoding="UTF-8"?>
<svg version="1.1" viewBox="0 0 2048 282" width="1280" height="1280" xmlns="http://www.w3.org/2000/svg">
<path transform="translate(0)" d="m0 0h2048v282h-2048z" fill="#FCFCFC"/>
<path transform="translate(124,54)" d="m0 0 15 1 7 2 1 2 12 5 6 3 6 1-1 3 9 6 6 7 11 14 7 14 2 3-3 1-9-3-4-4-4-7 1 3 1 4-1 2h-5l-7-9-2-2 4 6-1 7-6-1-5-6 2 4v5l-3 1-4-1h-2l-1 4-5 1-5-5 1-2 4 4h3l-1-1-4-2-2-3 3-3-3 1-2-3v7l-3 3h-2l-1-1 3 7v5h-2v4l3 1 1 2-1-6h2l2 7 1 10-1-11-2-8h2l3 9 1 11 4 1 10 9 13 11 6 2h3l-5-5-9-7-5-5-9-6 11 9 5 5 8 7h-3l-9-7-5-5-12-10-2-5 5 3 6 2 14 11v2l4 2 9 7-1 3-7 2-7-4h-1l-2 1-4-2 5 4h5l-1 2-7-1-9-8 8 10-10-1-9-8-1-3v-2l-2-1 2 5v5l-4-1-2-4v-3h-2l3 6v5l-5-1-3-4h-2l2 1-1 3-5-4-1-4 2 1 1-2h7l-1-2h-4l-3-4-1 5-5-1-5-8-5-7-2-1 7 9 1 1v6l-4 1-2-3-1-7-4-1-3-6h-6l-2 4-6 4h-5-2l-8 1 4-2 4-1v-2l-5 1-2-4 1-5 3-1v3l3-2 1 4 6-2 1-6-2-4-17-2-2-4h-2l2 7 4 2 14 1v3 3h-3v-4h-14l-5-3-4-8v-9l4-7 5-4-1-2 6-3 4-4-1-1-1 2-6-2-5-1-7-2-2-8v-6l7-6-1 4-2 4v11h7l4-5h3l1-3v-3l2-4 5-4 2 1-2 2 7 2v-2h-3v-2l5-4 1-5h1v6l-2 3h3l1-2 1 4-3 1v2h4v5l-3 2-3-2-3 2 6 1h2l4-4 3 2v-2h-2l2-5 6-1-1 6-2 1v-3l-2 1 1 4-1 2 4-3v3l2-5 2-2-2-1 4-2 1-4 5 4-2-5-6-4-7-3v-6l5-2 1 2h-4v5l9 3 5 4 3 9 3-1 1 3h-4v2l4 1 2 1v5l-1 2h2v-10l-3-12-5-5-8-5-2-4 2-4z" fill="#EBDFCE"/>
<path transform="translate(873,66)" d="m0 0 17 1 13 4 9 6 4 4 8 17 1 5v19l-4 16-4 6-9 8-8 5-3 2-8 2h-54l-2-1-1-8 7-3 3-1 1-7v-63l-10-3-1-4 2-4z" fill="#972C48"/>
<path transform="translate(1539,98)" d="m0 0h51l11 22 13 28 13 27v2h-42l-8-13-2-4-4-2-9-6-7-3-11 27-1 1h-42l2-6 26-53z" fill="#2F2D2A"/>
<path transform="translate(1449,95)" d="m0 0h13l22 2 7 1 1 1 1 25-9-2-13-3-9-1h-12l-5 1v4l25 5 16 5 9 5 6 6 1 3v8l-4 8-8 7-12 5-15 3-19 1-25-2-15-3-2-1v-26l7 1 17 5 14 2h13l4-2v-2l-30-6-14-5-9-6-4-7 1-10 5-8 8-6 13-5 11-2z" fill="#302E2B"/>
<path transform="translate(1231,49)" d="m0 0h14l10 3 10 6 9 10 4 9 2 10v7l-3 12-6 10-7 7-8 5-10 3h-16l-11-4-11-8-7-10-4-13v-12l3-10 6-10 8-8 10-5z" fill="#065596"/>
<path transform="translate(1230,139)" d="m0 0h16l11 4 9 6 8 9 5 12 1 6v8l-3 12-7 11-9 8-11 5-4 1h-15l-12-4-9-7-7-8-5-11-1-5v-12l3-10 5-9 9-9 12-6z" fill="#065596"/>
<path transform="translate(1323,139)" d="m0 0h11l13 4 10 7 6 7 5 10 2 10-1 13-5 12-7 8-7 6-9 4-4 1h-18l-12-5-10-8-6-9-4-13v-11l4-13 6-9 9-8 8-4z" fill="#065596"/>
<path transform="translate(1322,49)" d="m0 0h14l11 4 9 6 7 8 5 10 2 9v8l-3 12-6 10-7 7-8 5-10 3h-16l-11-4-8-6-7-7-5-10-2-9v-10l3-11 6-10 7-7 8-5z" fill="#065596"/>
<path transform="translate(273,67)" d="m0 0h39l1 2v6l-11 3-1 31h25l18 1-1-32-10-3-1-4 1-4h39l2 7-7 3-4 1-1 18v51l5 2 7 3-1 7-2 2h-35l-3-1-1-9 10-3 1-1 1-27h-43l1 24 2 4 9 3v7l-3 3h-21l-16-1-1-9 10-3 1-7v-59l-2-4-9-4z" fill="#972C48"/>
<path transform="translate(1614,97)" d="m0 0h32l70 1v27h-34v53h-34l-1-52-34-1v-27z" fill="#2F2D2A"/>
<path transform="translate(747,66)" d="m0 0 3 1 8 12 6 10 11 12 7 11 13 16 1 2v-31l-1-21-13-3 1-8h37l1 8-11 3-1 69-1 12-1 1-12 1-7-11-4-5-5-5-4-5-3-6-14-17-7-11-5-5 1 4 1 42 1 5 13 4 1 3-1 6-9 1h-18l-11-1-1-8 7-3 4-2v-63l-1-5-10-4 1-8z" fill="#972E48"/>
<path transform="translate(972,66)" d="m0 0h15l4 10 6 18 6 16 4 11v3h3l8 24 11 3-1 9h-42l-1-8 8-3 3-1-3-9-2-10-34 1-3 12-2 6 11 3v7l-1 2h-36l-1-9 11-3 1-4 5-13 10-28 7-18 5-18z" fill="#972C48"/>
<path transform="translate(445,65)" d="m0 0 2 3 9 26 5 14 9 24 4 12 3 4 9 3-1 9h-40l-1-8 8-3 3-1-3-9-2-10-27 1-7 1-5 15v2l11 3-1 9h-37l-2-7 1-2 10-4 1-3h3l3-10 6-17 7-20 5-12 5-17 1-1z" fill="#972C48"/>
<path transform="translate(701,66)" d="m0 0h7l3 4-1 11-2 12-1 2h-9l-4-2-2-16h-29v31l29 1 1 1-1 10h-30l2 26 3 2h26l3-9 1-5h13l1 1v25l-39 1h-37l-2-7 1-3 11-3-1-70-10-3-1-4 1-4z" fill="#972E49"/>
<path transform="translate(528,65)" d="m0 0h11l17 3 10 5 1 1v11l-3 14h-11l-2-4v-6h-3l-1-8-8-3h-11l-10 3-2 1-6 11-3 8v24l4 12 5 6 11 4h15l9-2 3-16h12l1 1v19l-5 5-4 2-1 2-5 2-11 2h-19l-12-4-3-3-9-7-6-7-4-11-1-6v-20l3-9 5-9 6-9 10-7 12-4z" fill="#972E49"/>
<path transform="translate(122,56)" d="m0 0h14l5 1 1 2 14 5 9 5-2 3-5-2 2 2h9l8 6 7 8 10 13 4 9v4l-5-2-9-13-13-13-4-5-4-2 6 5 7 9 8 8 1 5 2 5-1 2h-5l-7-9-2-2 4 6-1 7-6-1-5-6 2 4v5l-3 1-4-1h-2l-1 4-5 1-5-5 1-2 4 4h3l-1-1-4-2-2-3 3-3-3 1-2-3v7l-3 3h-2l-2-3v6l-3-3v-2h-2l3 5-1 2-3-3-4 6h-2l-1 3v3l4 8 2-2 1 5-4-1-7-12 4 10 3 4h6l-4-11-1-5 3 4 3 6v2h2l4 10h2v4l-3-1-4-8-2 2-2-1 2 4-1 3-3-6-4-1-8-14 2 6-1 2-5-9 1 6-3-3v-2h-2l3 6-1 2-5-7v-2l4-2-1-5v-12l6-1 1-7 1-8 3-1v-3l-4 2v-2l3-3 3-7h1v5h1l1 2v3l6 3-1 6 5-3 3-4-1-12-3-9-6-5-8-4-1-3z" fill="#F5F0E9"/>
<path transform="translate(865,77)" d="m0 0h18l10 3 5 5 6 10 2 5 1 8v11l-3 14-5 10-11 6-12 1-9-1-4-4v-61z" fill="#FDFDFD"/>
<path transform="translate(581,67)" d="m0 0h39l1 7-9 4h-2v67l4 4 7 3-1 8-2 1h-24l-13-1-2-8 7-3 4-1 1-16v-38l-1-15-10-4v-6z" fill="#972C48"/>
<path transform="translate(97,66)" d="m0 0h1v6l-2 3h3l1-2 1 4-3 1v2h4v5l-3 2-3-2-3 2 6 1h2l4-4 3 2v-2h-2l2-5 6-1-1 6-2 1v-3l-2 1 1 4-3 3h-2l-2 6h2l1-2v2l7-1v7l-2 5 2 1h-3v-10l-1 5-2-4h-3l-2 2-2-3-3 4v5l-3 6 1 8 2 7 4-1v-5l3 4 6 11v3l-6-8-1-1 4 8 5 6v3h-2l-5-10-3-1v-5h-2l1 7 3 1-4 3-3-3-3-10-18-1-3-5-1 4 1 6 4 1 14 1v3 3h-3v-4h-14l-5-3-4-8v-9l4-7 5-4-1-2 6-3 4-4-1-1-1 2-6-2-5-1-7-2-2-8v-6l7-6-1 4-2 4v11h7l4-5h3l1-3v-3l2-4 5-4 2 1-2 2 7 2v-2h-3v-2l5-4z" fill="#FBFAF8"/>
<path transform="translate(133,114)" d="m0 0h2l2 4 1-4 4 8v5h-2v4l3 1 1 2-1-6h2l2 7 1 10-1-11-2-8h2l3 9 1 11 4 1 10 9 13 11 6 2h3l-5-5-9-7-5-5-9-6 11 9 5 5 8 7h-3l-9-7-5-5-12-10-2-5 5 3 6 2 14 11v2l4 2 9 7-1 3-7 2-7-4h-1l-2 1-4-2 5 4h5l-1 2-7-1-9-8 8 10-10-1-9-8-1-3v-2l-2-1 2 5v5l-4-1-2-4v-3l-4-2-2-7 1-3 3 5v2l3-2v-7l-3-9 2 10h-3l-3-6v-4h-2l-4-7 3 7v4l-6 1-6-9-2-7 4 4 5 9h2l-4-4-4-9 1-2 1 1 5-6 3-3 2 2z" fill="#FBFAF9"/>
<path transform="translate(147,171)" d="m0 0 4 1 8 4v4l4 1 1 7-5 2 1-4h-2l-1-4-2 3h2v6h5l3-1 1-9h3l6-4v2l5 3 3-3 5 1 1 7-4 3h-5l-1-5-4-1 1-1h-3v2l-4 2-3 5 4 2h-8v1h12l8-1v-3l3 1v3l-7 3 1 2-6-1h-8l-3-1v2l-3-1-1-2-7-3v3h-11l-3 1-3 7h-7l-4-1v-10l2-5 1-8 4-2 6-4-5 1-1 2h-3v-6h13l1 3 5-3 7 6 1-2-5-2z" fill="#C4A06B"/>
<path transform="translate(102,110)" d="m0 0 2 1v10l2 5h2v-14l2-1 2 16-2 2h-3l5 7-2-6h2l1 1 1-3 5 8-3-8h2l9 16 4 1 1 1v-2h2l2-2 5 9 2 1-3-12 1-3 3 6 1 4v7l-4 2-3-4 2 7 4 8v5l-5-1-3-4h-2l2 1-1 3-5-4-1-4 2 1 1-2h7l-1-2h-4l-3-4-1 5-5-1-5-8-5-7-2-1 7 9 1 1v6l-4 1-2-3-1-7-4-1-3-6h-6l-2 4-6 4h-5-2l-8 1 4-2 4-1v-2l-5 1-2-4 1-5 3-1v3l3-2 1 4 6-2 1-6-2-4-17-2-3-4 1-3 3 5 16 1 4 4 3 8h3l1-1-3-3v-5h2l1 5 5 5 2 3v3h2l-3-6-6-8-2-6 4 4 5 7-7-13-2-4v-11z" fill="#CFB188"/>
<path transform="translate(29,140)" d="m0 0 2 1-1 4 3 1-2 5h-2v2h3l-2 6-2 3-1 6 3 9 3-2 2 3v2l2-3 3 1v9l-1 2 4-1v4 2l3-2 3 1-3 1 3 3-3 5 1 4h-4l-1 2-6 1-2-1v-2l-2-1v-3l6-2-10-4v-3l-5-1-1-4 2-1-3-2v-5l2-3h4l-4-9v-2h-3l-1-4-5-4 1-5 3 1-2-4 1-4h3l2 1 1-5z" fill="#CBAB7D"/>
<path transform="translate(225,140)" d="m0 0 1 4v3l2-7h1v11l-5 12-2 16-4 12 5-13 2-2h4l-3 12-3 6-9 2h-2l-5 6-1-3 2-4-2-2v-12l5-9 2-1-1 5-3 7v3l2-1v3l5-13 4-4 2-3h-2v-2l-6-1-1-2 2-3 4 2 1 2 1-3-4-5-1-3v-10l2-2 1 10v-6h2l1 4 2-8z" fill="#CAA97E"/>
<path transform="translate(432,80)" d="m0 0h1l4 13 5 12 4 14h-26l1-7 5-16 4-10z" fill="#FDFDFD"/>
<path transform="translate(973,80)" d="m0 0 2 4 8 21 4 14h-26l2-10 5-15 4-13z" fill="#FDFDFD"/>
<path transform="translate(124,54)" d="m0 0 15 1 7 2 1 2 12 5 6 3 6 1-1 3 9 6 6 7 11 14 7 14 2 3-3 1-9-3-4-4-7-11-10-10-4-6-6-5 1-2 8 7 7 8 8 8 8 12 4 2-4-11-8-11-9-11-8-6h-9l-3-2 1-2 5 2v-2l-14-7-14-3 1-2h-14l-1 4 11 6 5 6 2 7 1 12-6 7h-3v-6l-1-5 3-1 2 1v5l-1 2h2v-10l-3-12-5-5-8-5-2-4 2-4z" fill="#C39E67"/>
<path transform="translate(102,110)" d="m0 0 2 1v10l2 5h2v-14l2-1 2 16-2 2h-3l9 14-1 2-2-1 7 9 1 1v6l-4 1-2-3-1-7-4-1-3-6h-6l-2 4-6 4h-5-2l-8 1 4-2 4-1v-2l-5 1-2-4 1-5 3-1v3l3-2 1 4 6-2 1-6-2-4-17-2-3-4 1-3 3 5 16 1 4 4 3 8h3l1-1-3-3v-5h2l1 5 5 5 2 3v3h2l-3-6-6-8-2-6 4 4 5 7-7-13-2-4v-11z" fill="#C49F6D"/>
<path transform="translate(123,80)" d="m0 0h1v5h1l1 2v3h1l1 10-2 3-1-10h-2l1 5-2 7h-1v-9l-2-1 1 5-1 8 6-1-1 10h2v-5h1v7l-3 1-2-10h-2l1 16 1 6 6 10h6l-4-11-1-5 3 4 3 6v2h2l4 10h2v4l-3-1-4-8-2 2-2-1 2 4-1 3-3-6-4-1-8-14 2 6-1 2-5-9 1 6-3-3v-2h-2l3 6-1 2-5-7v-2l4-2-1-5v-12l6-1 1-7 1-8 3-1v-3l-4 2v-2l3-3z" fill="#FDFDFD"/>
<path transform="translate(49,201)" d="m0 0 2 1v2l5-3 2 9-1 3h2l1-4h2l2 4 1 6 2-1 3 7 4 5-1 4-2-4-4-1h-8l-1-3-7 1-4-3v-2l5-2-7-2-2-4 4-1-3-2 1-5 4 2z" fill="#C39D67"/>
<path transform="translate(97,66)" d="m0 0h1v6l-2 3h3l1-2 1 4-3 1v2h4v5l-3 2-3-2-3 2h4v2l-7 2h-6l-4 1 2 6-3 1-5-3-10-1-3-9v-6l7-6-1 4-2 4v11h7l4-5h3l1-3v-3l2-4 5-4 2 1-2 2 7 2v-2h-3v-2l5-4z" fill="#C19A65"/>
<path transform="translate(202,201)" d="m0 0 2 1 1 4-3 6-7 7-4 3 6-4 7-8h2v3l1-2h2l-2 5-8 8-7 2h-6v-2l-10 5-1-5-1-7 3-1 2 1v6l2-2 1-7 5-2 6-9h1v5l-8 8 10-8z" fill="#CEAE88"/>
<path transform="translate(81,94)" d="m0 0 5 2 3 3-1 4 4-2-2 4h-3l-2 4-13 13 1 12 4 1 14 1v3 3h-3v-4h-14l-5-3-4-8v-9l4-7 5-4-1-2 6-3 4-4v-2h-2z" fill="#C5A16C"/>
<path transform="translate(142,177)" d="m0 0 2 2 5 1 2 1 1 3 3 1-2 6-5 3-12 1-3 7h-8l1-9 2-4 2 1v-4l5-1 4-6z" fill="#F5F1EA"/>
<path transform="translate(492,197)" d="m0 0h14l5 4 1 9-4 6-3 1h-13z" fill="#C39E67"/>
<path transform="translate(901,196)" d="m0 0 7 1 5 5v10l-5 5-7 1-6-3-2-3v-10l5-5z" fill="#C39E67"/>
<path transform="translate(679,196)" d="m0 0 13 1 4 4 1 2v9l-4 4-2 1h-13v-20z" fill="#C39E67"/>
<path transform="translate(837,196)" d="m0 0 13 1 4 3 1 3v8l-2 4-4 2h-13v-20z" fill="#C39E67"/>
<path transform="translate(1058,197)" d="m0 0h10l5 4 1 9-3 5-6 3-6-1-5-4-1-2v-7l3-5z" fill="#C39E67"/>
<path transform="translate(82,229)" d="m0 0 6 1v4l3-1v2l2-1-1-5h6l2 8h2v-2l9 1 8-1 1 3-15 5v3l-2 1h-6l1-3h-4v-2l7-1-1 4 2-1 1-3 1-1-5-1-2-2v2l-6-1h-3l-7-1-3-2 1 3 5 1v2l8-1 1 4h-16l1-2-9-1v-3l6-2 1-3 7 1z" fill="#C7A472"/>
<path transform="translate(164,224)" d="m0 0 4 1-13 6 2-1 8-3 5 1-1 2 2 2-15 7-4 1 7-1 12-6h4v2l-22 11-6-2-11-5-5-1 1-3 11 2 7-4v-3z" fill="#C4A06D"/>
<path transform="translate(977,196)" d="m0 0 13 1 3 3v8l1 6-4 3h-13l-1-3v-17z" fill="#C7A572"/>
<path transform="translate(100,97)" d="m0 0 3 2-1-2 5 1 1 1v11l2 1-1 1v14h-4l-2-5v-10h-1l-1 16-4 1-4-11 1-7 2-5 1-5z" fill="#F1EADF"/>
<path transform="translate(147,171)" d="m0 0 4 1 8 4v4l4 1 1 7-5 2 1-4h-2l-1-4-2 3-4-1v-3l-8-1-1-2-5 5-2 3h-5v4l-4-1-1-5 2-4 3-1 6-4-5 1-1 2h-3v-6h13l1 3 5-3 7 6 1-2-5-2z" fill="#C4A06C"/>
<path transform="translate(152,140)" d="m0 0 5 3 6 2 14 11v2l4 2 9 7-1 3-7 2-7-4h-1l-2 1-9-7-11-11 1-2-1-1v-2l4 2 8 7 10 9 8 5h5l-5-5-9-7-5-5-9-6 11 9 5 5 8 7h-3l-9-7-5-5-12-10z" fill="#C39E67"/>
<path transform="translate(133,114)" d="m0 0h2l2 4 1-4 4 8v5h-2v9l-2 2h-3l-4-7 3 7v4l-6 1-6-9-2-7 4 4 5 9h2l-4-4-4-9 1-2 1 1 5-6 3-3 2 2z" fill="#D4B994"/>
<path transform="translate(793,196)" d="m0 0h8l7 3 1 2v7l-2 5 2 4h-5l-2-4h-4l-1 4h-5v-20z" fill="#C39E67"/>
<path transform="translate(337,196)" d="m0 0h8l6 2 2 2v9l-2 3 2 3-1 3-4-1-3-4-3-1v5h-5z" fill="#C39E67"/>
<path transform="translate(424,196)" d="m0 0h8l6 2 2 2v9l-2 4 2 4h-5l-2-4h-4l-1 4h-4z" fill="#C39E67"/>
<path transform="translate(654,196)" d="m0 0 4 1 7 9 1-9 4-1 1 1v20l-2 1-8-7-2-3-1 9h-5v-20z" fill="#C39E67"/>
<path transform="translate(188,111)" d="m0 0 2 1 3 10 5 7 2 16 2-4v-12l-2-12h2l3 9v15l-2 26-2 4h-2v-9l-4-31-6-8-3-10z" fill="#C39E67"/>
<path transform="translate(1522,203)" d="m0 0 7 2 3 5-1 7-4 4h-9l-5-5v-7l4-5z" fill="#7B7776"/>
<path transform="translate(1614,204)" d="m0 0h12l5 4 1 7-4 5-2 1h-11l-1-2z" fill="#7B7776"/>
<path transform="translate(1812,203)" d="m0 0 6 1 5 4 1 6-3 5-3 2h-8l-5-4v-8l5-5z" fill="#7B7776"/>
<path transform="translate(1545,204)" d="m0 0h13l4 4v9l-3 3-3 1h-11z" fill="#787676"/>
<path transform="translate(931,196)" d="m0 0 12 1 3 3 1 7-5 5h-7v5h-5v-20z" fill="#C39E67"/>
<path transform="translate(1904,204)" d="m0 0h13l2 1 1 14-3 2h-12l-1-1z" fill="#7F7A75"/>
<path transform="translate(40,71)" d="m0 0 6 1 4 4 1 5-3 7-4 6-5-2v2h-2l-1-2-1 1 6 4-1 3-5-4-7-6v-2l16 2 1-3-6-3-1-3-5-1 2-5z" fill="#C39E67"/>
<path transform="translate(633,196)" d="m0 0h14l-1 5h-9l1 2 8 1v6l-8 1-1 2h10v4h-14l-1-1v-19z" fill="#C39E67"/>
<path transform="translate(553,196)" d="m0 0 3 1v7h7v-7l3-1 2 1v20h-5v-7h-7v7h-5v-20z" fill="#C39E67"/>
<path transform="translate(823,193)" d="m0 0h5l-3 2h-3v2h7v4h-8l-1 3h8l1 2-1 4h-8v3h10v4h-15v-21h6v-2z" fill="#C39E67"/>
<path transform="translate(711,196)" d="m0 0 4 1 6 15 1 6-5-1-2-3h-7l-1 3h-7l1-3h2l3-10 3-7z" fill="#C8A674"/>
<path transform="translate(102,110)" d="m0 0 2 1v10l2 5h2v-14l2-1 2 16-2 2h-3l9 14-1 2-2-1 7 9 1 1v6l-4 1-2-3-1-7-4-1-3-6-2-2h3l2 3v3h2l-3-6-6-8-2-6 4 4 5 7-7-13-2-4v-11z" fill="#C7A375"/>
<path transform="translate(526,196)" d="m0 0h5l1 4-1 1h-9v3h9v6h-9v3h10v4h-14l-1-1v-19z" fill="#C39E67"/>
<path transform="translate(464,196)" d="m0 0h5l6 15 2 6h-6l-1-3h-8l-1 3h-5l7-20z" fill="#C8A674"/>
<path transform="translate(407,196)" d="m0 0 4 1 5 12 2 5v3h-5l-1-3-8-1-1 4h-5l3-10 4-10z" fill="#C8A775"/>
<path transform="translate(582,196)" d="m0 0 4 1 5 10 3 10h-5l-1-4-8 1-2 3h-5l7-19z" fill="#C8A674"/>
<path transform="translate(123,93)" d="m0 0h2l2 6v-3h2l1 5v2h3l1 8-3 3-2-2 1 6-3 5h-4l-2-5-1-8 3-1 1 9 3 1-1-2h-2v-9h-5v-13l3 1v8z" fill="#CAA979"/>
<path transform="translate(294,196)" d="m0 0h13l1 4-1 1h-9l1 2 8 1v6h-8l-1 3h10l1 4h-15z" fill="#C39E67"/>
<path transform="translate(179,44)" d="m0 0 3 1-3 4 5 1-3 5-2-3h-2l-1 7 4 1 2-4-1 6 9-2v-11h2v2l3 1-2 1v3l5-1 2 4-9 2v9l4-1 5-5 1-3 4 2 1 2-9 6-2 5-7-6-2-3h2l1-5-5 1-1 3-10-8-2-3 4-5z" fill="#C4A06B"/>
<path transform="translate(360,196)" d="m0 0h13l1 4-1 1h-9l1 2 8 1v6h-9v3h10v4h-14z" fill="#C39E67"/>
<path transform="translate(112,28)" d="m0 0h6l4 4 1 9-3 4-7 1-1-1-1-15-4 1 1 15h-2l-2-7-1-7-1-2z" fill="#C39E67"/>
<path transform="translate(150,152)" d="m0 0 4 2 11 11 8 6h5l-1 2-7-1-9-8 8 10-10-1-9-8-1-3v-2l-2-5z" fill="#C9A878"/>
<path transform="translate(1636,204)" d="m0 0 5 1 5 8 6-9h4v17h-4l-1-8-4 6-4-2-2-3-1 7h-4z" fill="#787677"/>
<path transform="translate(1982,204)" d="m0 0h12l3 3v6l-2 4 2 4-5-1-2-3-4-1v5h-4z" fill="#787676"/>
<path transform="translate(1736,204)" d="m0 0h12l3 3v6l-2 4 2 4-5-1-2-3h-3l-1 4-4-1z" fill="#7B7776"/>
<path transform="translate(1435,204)" d="m0 0h13l3 4v5l-2 4 2 4-5-1-3-3-3-1v5h-4z" fill="#7A7776"/>
<path transform="translate(1875,204)" d="m0 0h12l3 4-1 6v4l1 3h-5l-2-4-4-1v5h-4z" fill="#797676"/>
<path transform="translate(225,140)" d="m0 0 1 4v3l2-7h1v11l-5 12-1 7-1-2h-2v-2l-6-1-1-2 2-3 4 2 1 2 1-3-4-5-1-3v-10l2-2 1 10v-6h2l1 4 2-8z" fill="#C39D6A"/>
<path transform="translate(966,196)" d="m0 0 3 1v16l-4 4-6 1-5-3-2-3v-15h5l1 15 6 1 1-16z" fill="#C39E67"/>
<path transform="translate(279,196)" d="m0 0 7 1v4h-9l1 2 8 3 2 4-1 5-2 2-7 1-6-2 1-4 9 1 1-3-8-1-3-5 1-5 2-2z" fill="#C39E67"/>
<path transform="translate(1565,121)" d="m0 0 2 2 6 19v2h-16l1-6z" fill="#FDFDFD"/>
<path transform="translate(102,167)" d="m0 0 3 1v2l7 2v-2h2l1 4 3 2v2l-4-2-7-3h-7l-2 5-1 8 11 3h11l4-1-2 4-2 2-8-1-4 1v-3h-6l-3 1-4-4-1-4 2-9 1-3-1-3 8 1z" fill="#C29C66"/>
<path transform="translate(1829,203)" d="m0 0 5 3 5 6 1-8h4v17l-5-1-6-7-1 8h-4v-17z" fill="#787676"/>
<path transform="translate(160,92)" d="m0 0 5 2 7 6 4 6-1 7-6-1-12-14 1-4h3z" fill="#BE9263"/>
<path transform="translate(1671,204)" d="m0 0 5 1 6 7 1-8h4v17l-5-1-5-6v-2h-2v9h-4z" fill="#797676"/>
<path transform="translate(777,196)" d="m0 0 7 1 3 2-1 3-7-1-4 2v8l1 1h10v4l-9 2-6-3-2-3v-9l3-5z" fill="#C39E67"/>
<path transform="translate(321,196)" d="m0 0 8 1 2 1-1 4-7-1-4 3v6l1 2 4 1 6-1v4l-8 2-6-3-3-5 1-9 4-4z" fill="#C39E67"/>
<path transform="translate(124,54)" d="m0 0 15 1 2 2h-19l-1 4 11 6 5 6 2 7 1 12-6 7h-3v-6l-1-5 3-1 2 1v5l-1 2h2v-10l-3-12-5-5-8-5-2-4 2-4z" fill="#C39E67"/>
<path transform="translate(177,112)" d="m0 0h2l6 12 4 5 3 15-1-14h2l2 8 1 15-1 12h-2l-3-17-4-18-7-10-2-5z" fill="#C39E67"/>
<path transform="translate(97,66)" d="m0 0h1v6l-2 3h3l1-2 1 4-3 1v2h4v5l-3 2-3-2-3 2h4v2l-7 2h-6l-4 1 2 6-3 1-7-4 3-3 1 3 2 1 1-5 4-2h3v-2l5-3h3l-2-5h2v-2h-3v-2l5-4z" fill="#CAA67F"/>
<path transform="translate(605,196)" d="m0 0 7 1 3 2-1 3-7-1-3 1-1 2v7l3 2 8-1 1 3-3 2h-9l-5-4-1-2v-8l3-5z" fill="#C39E67"/>
<path transform="translate(71,126)" d="m0 0h2l2 3 17 2 3 5-1 6-2 2h-5l-2-3-3 3 1-5-2-1h7v4h3l-1-4 1-1-14-1-5-2z" fill="#FDFDFD"/>
<path transform="translate(221,109)" d="m0 0h7l4 4-1 5-4 3-7 1-5-3v-6l3-3z" fill="#C39E67"/>
<path transform="translate(1040,196)" d="m0 0 8 2v4l-8-1-3 3v6l3 3 8-1v4l-2 1h-9l-5-4-1-2v-8l5-6z" fill="#C39E67"/>
<path transform="translate(1761,204)" d="m0 0h5l7 15v2l-5-1-1-2h-7l-2 3h-4l3-9z" fill="#8A8786"/>
<path transform="translate(146,97)" d="m0 0 4 2 2 4-2 5-3 1-2-3v7l-3 3h-2l-2-3h-3l1-4-3-8 2-2 4 1 2 1v2h-3l1 3-1 2 2-1 4-7 4-1h-2z" fill="#C6A370"/>
<path transform="translate(92,229)" d="m0 0h6l2 8h2v-2l9 1 8-1 1 3-15 5v3l-2 1h-6l1-3h-4v-2l7-1-1 4 2-1 1-3 1-1-5-1-2-2v2h-4v-2h2l-3-7z" fill="#C29C68"/>
<path transform="translate(1967,204)" d="m0 0 5 1 6 13v3h-4l-2-3h-6l-2 3h-4l3-9z" fill="#8A8785"/>
<path transform="translate(48,60)" d="m0 0 7 1 5 6v5l-3 3-7-1-5-6v-5z" fill="#C39E67"/>
<path transform="translate(2018,203)" d="m0 0 4 2 6 13v3l-4-1-2-2h-6l-3 3h-3l3-10z" fill="#8D8986"/>
<path transform="translate(1599,204)" d="m0 0 5 1 7 15v1h-5v-3h-8l-2 3h-4l3-9z" fill="#898685"/>
<path transform="translate(111,124)" d="m0 0h2l1 2 6 1 7 14 5 1h2l-4-11-1-5 3 4 3 6v2h2l4 10h2v4l-3-1-4-8-2 2-2-1 2 4-1 3-3-6-4-1-8-14 2 6-1 2-5-9 1 6-3-3v-2h-2l3 6-1 2-5-7v-2l4-2z" fill="#FDFDFD"/>
<path transform="translate(168,114)" d="m0 0 3 3 4 6 5 5 4 15-1-10-1-5 3 2 3 16v16h-2l-2-12-5-12-2-9-8-8z" fill="#C39E67"/>
<path transform="translate(172,182)" d="m0 0h6l-2 2 3 1 1 4 4 2h-2v3l-8 2h-12l-3-2 7-1v-3l4-5h3z" fill="#F5F1EB"/>
<path transform="translate(162,80)" d="m0 0 5 5 12 11 5 6 3 7-1 2h-5l-7-9-4-5-8-7-1-3 3 1v2l4 2 11 10 3 5-1-4-9-10-10-9z" fill="#C29D66"/>
<path transform="translate(736,196)" d="m0 0 5 1 4 6 4-6 5-1-1 4-4 9-1 8h-5l-2-8-5-10z" fill="#C39E67"/>
<path transform="translate(58,147)" d="m0 0h2l3 5 3 4v3l4-1-1 9-2-2-5-10-1-1h-5l-3 1-1 6 4 6 6 3 5 1v2h-7-4l1-2-7-2v-4l-4-4 1-2 2 1v-5l8-5z" fill="#C29D66"/>
<path transform="translate(1567,204)" d="m0 0h13v3h-9v4h9v3h-9v4h10l-1 3h-13z" fill="#797776"/>
<path transform="translate(875,196)" d="m0 0h13l1 4-5 1-1 16h-5l-1-16-5-1v-3z" fill="#C39E67"/>
<path transform="translate(151,142)" d="m0 0 3 1 5 5 9 8v2l4 2 9 7-5-5-6-5-5-5-7-6h3l12 9 5 5 9 7v2l-5 1-9-6-13-12-6-5-3-1z" fill="#FDFDFD"/>
<path transform="translate(174,177)" d="m0 0 1 2 5 3 3-3 5 1 1 7-4 3h-5l-1-5-4-1 1-1h-3v2l-4 2-2 3h-2l1-9h3z" fill="#C09665"/>
<path transform="translate(1417,204)" d="m0 0h14l-1 3h-8v4h8v3l-8 1-1 3h10v3h-13z" fill="#7D7875"/>
<path transform="translate(55,111)" d="m0 0 5 5v7l-1 8 1 4 5 2 5 9 3 1 4-3-2 8-7-1-3-4-2-7-7-6-1-7 2-5v-8h-3z" fill="#FDFDFD"/>
<path transform="translate(1925,204)" d="m0 0h4l1 13h5l2-13 4 1v9l-2 5-2 2h-9l-3-4z" fill="#7D7975"/>
<path transform="translate(379,196)" d="m0 0h15l3 1v3l-8 1v16h-4l-1-16-5-1z" fill="#C39E67"/>
<path transform="translate(1e3 196)" d="m0 0 3 1v16h10v4h-15v-20z" fill="#C39E67"/>
<path transform="translate(1402,204)" d="m0 0h10v4l-7-1-2 3 9 2 1 1v6l-3 2h-9l-2-1v-3l10 1v-3l-8-2-2-2 1-6z" fill="#7A7776"/>
<path transform="translate(81,94)" d="m0 0 5 2 3 3-1 4 4-2-2 4h-3l-2 4-13 13 1 11-3-3-1-2v-7l4-6 6-5 5-8-1-6h-2z" fill="#C29B68"/>
<path transform="translate(1453,204)" d="m0 0h5l4 9v2h2l1-5 3-6 4 1-7 16h-5z" fill="#7A7776"/>
<path transform="translate(1491,203)" d="m0 0 6 1 3 2v2h-9l-2 2v7h7 4l-1 3-2 1h-9l-4-4-1-6 3-5z" fill="#7D7875"/>
<path transform="translate(1704,204)" d="m0 0h10l-1 4-8-1v3l9 2 1 1v6l-3 2h-9l-2-4 10 1v-3l-8-2-1-1v-6z" fill="#7A7776"/>
<path transform="translate(156,99)" d="m0 0 6 5 4 6v5l-3 1-4-1h-2l-1 4-5 1-5-5 1-2 4 4h3l-1-1-4-2-2-3 4-3 3 2-2-2v-3h2l3 5 5 4 1-3-6-8-2-3z" fill="#BF9566"/>
<path transform="translate(133,104)" d="m0 0h2l2 6-1 3 2 3-1 3-2-5h-2l3 5-1 2-3-3-4 6h-2l-1 3v3l4 8 2-2 1 5-4-1-7-12-1-2v-14h1l2 11 5-2 1-5-1-6 4 3 1-6z" fill="#FDFDFD"/>
<path transform="translate(1062,200)" d="m0 0 5 1 2 2v8l-3 3-6-1-2-3v-6z" fill="#FDFDFD"/>
<path transform="translate(1780,204)" d="m0 0h9l2 1v3h-9l-2 3 1 5 1 1h6 3l-2 4h-9l-4-4-1-7z" fill="#797676"/>
<path transform="translate(73,163)" d="m0 0 5 2-1 2-4 1-2 4v4l6 3 16 1v2l-5 3-11 1v-5l-11-1 3-11z" fill="#C39E67"/>
<path transform="translate(55,114)" d="m0 0h2l1 2v6l-2 5 1 7 7 6 3 9 3 2h4l2-7 1-2 2 1-3 11-9-1-3-4-3-8-7-6v-10l1-9z" fill="#C39E67"/>
<path transform="translate(158,119)" d="m0 0 4 2 11 10 2 5-2-8 3 1 3 10v9h-2l-7-16-5-4-6-5z" fill="#C39E67"/>
<path transform="translate(162,35)" d="m0 0 3 1 1 10 7-6 3 1-6 12 1 2-6-2 4-6-3 2h-2v2h-2v-8l-2 6-2 1-2-1v-2l3-3z" fill="#C39E67"/>
<path transform="translate(902,200)" d="m0 0 5 2 1 1v8l-5 3-5-3-1-5 3-5z" fill="#FDFDFD"/>
<path transform="translate(449,193)" d="m0 0h5l-4 3 1 1v20h-5v-20l1-3z" fill="#C39E67"/>
<path transform="translate(97,88)" d="m0 0h2v3l-5 3h-3l2 3v4l-5 2 1-4-3-1v-2l-5-2-1 2v-4l6-2 6-1z" fill="#C39E67"/>
<path transform="translate(121,89)" d="m0 0 1 4-4 1v8l-2 7-2 1h-6v-7l2-6h1l-1 11 2-6 1-7h3l-1-3 2-2v2z" fill="#C6A36F"/>
<path transform="translate(81,139)" d="m0 0h2v3l3-2 1 4h5l-1 4-3-1v2l6-1 5-2v2l-6 4h-5-2l-8 1 4-2 4-1v-2l-5 1-2-4 1-5z" fill="#BC8D62"/>
<path transform="translate(500,200)" d="m0 0 6 2 1 7-3 4h-7v-12z" fill="#FDFDFD"/>
<path transform="translate(225,176)" d="m0 0h4l-3 12-3 6-9 2v-3l4-2 5-13z" fill="#CAAB7B"/>
<path transform="translate(842,200)" d="m0 0 6 1 2 2v8l-2 2h-7v-12z" fill="#FDFDFD"/>
<path transform="translate(100,97)" d="m0 0 2 4-6 11 1 9v-2-7l3-3v10l1 8-4 1-4-11 1-7 2-5 1-5z" fill="#C5A26F"/>
<path transform="translate(102,110)" d="m0 0 2 1v10l2 5h2v-14l2-1 2 16-2 2h-3l7 11-1 2-7-10-5-10v-11z" fill="#BF9664"/>
<path transform="translate(1021,196)" d="m0 0h4v21h-5v-20z" fill="#C39E67"/>
<path transform="translate(117,110)" d="m0 0h2l2 10v6l-1 1h-6l-3-7v-8l5-1v12l2 1z" fill="#C5A16C"/>
<path transform="translate(96,31)" d="m0 0h5l-2 1 3 12 1 3-6-2-5-4 4 8-5 1 1-3-2-4-2-1-1-4-2-2 5-1 8 7-3-10z" fill="#C4A06B"/>
<path transform="translate(864,196)" d="m0 0 4 1v20h-5v-20z" fill="#C39E67"/>
<path transform="translate(145,126)" d="m0 0h2l3 9 1 11-3 6h-2l-2-10-3-7 1-4 2 3-1-6h2l2 7 1 10-1-11z" fill="#C39E67"/>
<path transform="translate(217,84)" d="m0 0 3 1-9 10-1 2 10-2-1 2-7 3-2 1-1-5-3-1 1-2h2v-5h-4v2h-2l-1-5h2v2z" fill="#C19A66"/>
<path transform="translate(1856,204)" d="m0 0h16l-1 3h-5v14h-4v-14h-5z" fill="#787677"/>
<path transform="translate(683,201)" d="m0 0h7l2 2v8l-2 2h-7z" fill="#FDFDFD"/>
<path transform="translate(204,210)" d="m0 0h2v3l1-2h2l-2 5-8 8-7 2-3-1v-2l8-5z" fill="#BB8961"/>
<path transform="translate(1944,204)" d="m0 0h15l-1 3h-5v14h-4v-14h-5z" fill="#787676"/>
<path transform="translate(1718,204)" d="m0 0h15l-1 3h-5v14h-4v-14h-5z" fill="#7A7776"/>
<path transform="translate(132,239)" d="m0 0 7 3 1 4-2 3 6 1 2 4h-5l-4-2v-3l-6 4h-4l2-4 6-4 1-2-4-1z" fill="#C39E67"/>
<path transform="translate(87,74)" d="m0 0 2 1-2 2 5 1 2 6-6 3-7-2-1-5z" fill="#E9DBCB"/>
<path transform="translate(103,197)" d="m0 0 12 1 6 1-1 2-9-1h-4l-2-1 2 5-1 8 1 3-2 4h3v-2h2l-2 4-3 1-2-2v-18l-1-3z" fill="#C09665"/>
<path transform="translate(1812,207)" d="m0 0h5l3 5-2 5-1 1h-6l-2-2v-7z" fill="#FDFDFD"/>
<path transform="translate(1520,207)" d="m0 0 7 1 1 7-3 3h-5l-3-3v-5z" fill="#FDFDFD"/>
<path transform="translate(78,235)" d="m0 0 10 2h3l6 2-1-3 3 1v2h8l-1 2h-3l-1 4h-2l1-4-8 2-1-2-11 1 3-1v-2h-11v-1h5z" fill="#FDFDFD"/>
<path transform="translate(165,74)" d="m0 0 4 1 8 7 9 11 7 8 3 6v2h-2l-7-11-12-13-7-8z" fill="#C39E67"/>
<path transform="translate(131,29)" d="m0 0 3 1 1 2v8l-2 4-5-1-1-2 1-10z" fill="#FDFDFD"/>
<path transform="translate(152,140)" d="m0 0 5 3 6 2 7 6h-3l-8-5 11 9 5 5 8 7h-3l-9-7-5-5-12-10z" fill="#BE9165"/>
<path transform="translate(18,120)" d="m0 0 4 2h-3l-1 5h5v-4l5 1-3 1v3h5v-5l-2-2 5 1v7l-2 3-5-1h-10l1-10z" fill="#C29C66"/>
<path transform="translate(59,49)" d="m0 0 4 2-1 2-4-2v3l9 2 2 4-1 5-5 2-3-3h6l1-3-10-2-2-6z" fill="#C29C66"/>
<path transform="translate(1619,207)" d="m0 0 7 1 2 5-2 4-2 1h-6v-10z" fill="#FDFDFD"/>
<path transform="translate(1549,207)" d="m0 0h7l2 2v7l-3 2h-6z" fill="#FDFDFD"/>
<path transform="translate(128,28)" d="m0 0h7l2 3v10l-5 5-5-1-2-3v-10zm3 1-3 2-1 10 2 3 5-1 1-3v-8l-3-3z" fill="#C39E67"/>
<path transform="translate(141,198)" d="m0 0 5 1 1 4-1 3v10l1 6h-6l-2-4h4v-15l1-3-3 3h-2l1-4z" fill="#C29B66"/>
<path transform="translate(119,78)" d="m0 0 2 1-4 8-5 9h-9l2-6 4-1 4-3v3l2-5 2-2-2-1z" fill="#C49F69"/>
<path transform="translate(120,75)" d="m0 0 5 4 1 6-4 3v-3l-3 5h-3l1 5-1 6h-1l-2-8 7-14z" fill="#CCAD7F"/>
<path transform="translate(1504,204)" d="m0 0h5v17h-5z" fill="#787676"/>
<path transform="translate(1661,204)" d="m0 0h5v17h-5z" fill="#7C7876"/>
<path transform="translate(96,82)" d="m0 0v3l-3 2h4v2l-7 2h-6l-4 1 2 6-3 1-7-4 3-3 1 3 2 1 1-5 4-2h3v-2z" fill="#C09765"/>
<path transform="translate(73,236)" d="m0 0m-3 1h3v2l7-1 4 1v2l8-1 1 4h-16l1-2-9-1v-3z" fill="#C29B66"/>
<path transform="translate(621,196)" d="m0 0 4 1v20h-4z" fill="#C39E67"/>
<path transform="translate(125,107)" d="m0 0 3 2 2 9-3 5h-4l-2-5-1-8 3-1 1 9 3 1-1-2h-2v-7z" fill="#C29C66"/>
<path transform="translate(84,99)" d="m0 0 1 3-6 9-7 6-2 4-1 7-2-3 1-8 5-7 3-2h3l-1-3 5-4z" fill="#FDFDFD"/>
<path transform="translate(179,44)" d="m0 0 3 1-3 4 5 1-3 5-2-3h-2l-1 7 4 1 2-4-1 6h3l-1 4-10-8-2-3 4-5z" fill="#C39E67"/>
<path transform="translate(48,62)" d="m0 0 6 1 4 5-1 5-5-1-5-5z" fill="#FDFDFD"/>
<path transform="translate(170,239)" d="m0 0 6 1v2l-5 2h5v2l-4 1h-10l-2-4z" fill="#CBAA7D"/>
<path transform="translate(152,149)" d="m0 0 7 3 6 7 7 6 2 4-5-2-10-9-7-7z" fill="#D2B493"/>
<path transform="translate(150,122)" d="m0 0 12 7 2 2 2-2 4 10 1 4-4-2-8-11-8-5z" fill="#C39E67"/>
<path transform="translate(223,111)" d="m0 0h5l2 4-3 3-2 1h-7l-1-5z" fill="#FDFDFD"/>
<path transform="translate(232,143)" d="m0 0 1 3 2-2-1 11-3 5-6 4 3-9 2-11z" fill="#C5A16E"/>
<path transform="translate(56,111)" d="m0 0 4 2 2 3v7l-1 7 2 4 5 4 3 7 3 2-2 1-4-3-3-7-5-3-2-4 1-15z" fill="#C19A66"/>
<path transform="translate(147,76)" d="m0 0 9 5 3 4v6l-4 1-7-5 2-2-2-2 1-3 6 6v3l2 1-1-4-5-5-4-3z" fill="#C6A373"/>
<path transform="translate(114,30)" d="m0 0 5 1 1 2v9l-2 2h-4l-1-13z" fill="#FDFDFD"/>
<path transform="translate(80,159)" d="m0 0h2l4 6 1 5-3 4-4-1-2-5 3-5z" fill="#D3B596"/>
<path transform="translate(223,93)" d="m0 0h2l-2 4-3 5 6-1v-2h2l1 4-10 3-5 3-1-4z" fill="#C29C66"/>
<path transform="translate(39,74)" d="m0 0 7 1 3 5-2 6-7-6-3-2v-3z" fill="#FDFDFD"/>
<path transform="translate(229,123)" d="m0 0 5 2v5l-5 2-1-2 3-1v-3l-3 1-2 4-2 1h-6l-1-1v-7h5l-2 2-1 4 4-1 3-5z" fill="#C39E67"/>
<path transform="translate(108,70)" d="m0 0 6 2v2l4-1-2 5-1-2-3 2-3-1 2-2-7 7-1-5 3-6z" fill="#CEAD8A"/>
<path transform="translate(82,37)" d="m0 0 2 1-1 2 4 7-1 5-2 2-5-1-5-7v-2h-3v-2l5-1 3 7 2 3h3l-1-6-2-5-2-1z" fill="#C39E67"/>
<path transform="translate(72,123)" d="m0 0 2 1 2 4 16 1 4 4 3 10-3-1-1 2-3-1 2-3-1-6-1-2-17-2-3-4z" fill="#C29C66"/>
<path transform="translate(123,93)" d="m0 0h2l1 4v8h-2v3h-5v-13l3 1v8z" fill="#C29C66"/>
<path transform="translate(204,69)" d="m0 0h6l4 5-2 4-2-1 1-5-7 1-4 4v5l4 1h-2v2l-3-1-2-4 1-6z" fill="#C39E67"/>
<path transform="translate(2e3 204)" d="m0 0h4v17h-4z" fill="#857D74"/>
<path transform="translate(1895,204)" d="m0 0h4v17h-4z" fill="#787677"/>
<path transform="translate(1796,204)" d="m0 0h4v17h-4z" fill="#787677"/>
<path transform="translate(1693,204)" d="m0 0h4v17h-4z" fill="#787677"/>
<path transform="translate(1475,204)" d="m0 0h4v17h-4z" fill="#787677"/>
<path transform="translate(108,152)" d="m0 0h5l1 8-10 1 1-6z" fill="#DAC4A3"/>
<path transform="translate(20,109)" d="m0 0 5 1-4 1v3l4-1 3-2h5l2 2-1 7-5-1 4-1 1-4-6 1-2 2h-6l-1-1z" fill="#C29C66"/>
<path transform="translate(108,222)" d="m0 0h32l-1 3h-29l-2-1z" fill="#B4815E"/>
<path transform="translate(104,145)" d="m0 0h3v2l-3 2 4-1 1 3h-4l-1 3-1 4-1-3-7-1 1-3 4-1 1-3z" fill="#C49E6C"/>
<path transform="translate(140,131)" d="m0 0 2 4 4 10v7h-1l-3-12v3l1 5h-3l-3-6 1-5z" fill="#EDE2D5"/>
<path transform="translate(120,127)" d="m0 0 4 4 5 9h2l-2-9h2l3 7v4l-6 1-6-9z" fill="#C19A66"/>
<path transform="translate(102,97)" d="m0 0 5 1 1 5-2 6-6-1 2-7v-3z" fill="#CAA67E"/>
<path transform="translate(214,172)" d="m0 0h2l-2 10-4 12h-1l1-8-2 1 1-6 2-5 2-1z" fill="#E2D0BD"/>
<path transform="translate(140,137)" d="m0 0 3 3 2 7v7l-4 2-6-11 1-3 5 9 2 1-3-12z" fill="#C29C66"/>
<path transform="translate(87,186)" d="m0 0 5 2 1 4-5 1v3h-5l-1-2 3-1-1-5z" fill="#CCAD7F"/>
<path transform="translate(25,95)" d="m0 0 1 2-1 2 9 2 3 1 2-1-1 7-2 1-1-4-10-4v4l-4-1 3-8z" fill="#C09765"/>
<path transform="translate(146,97)" d="m0 0 4 2 2 4-2 5-3 1-4-4 1-5 4-1h-2z" fill="#CBAC7D"/>
<path transform="translate(150,108)" d="m0 0 6 5 1 5-3 2-4-1-4-4 1-2 4 4h3l-1-1-4-2-2-3z" fill="#BF9069"/>
<path transform="translate(143,29)" d="m0 0 6 1v6l-2 1-1-5-3-1 2 6 2 3v5h-3l-1-4-2-3v-7z" fill="#C39E67"/>
<path transform="translate(68,76)" d="m0 0 1 2-3 9 2 1v2h6l-2 4-7-1-1-2v-9z" fill="#FDFDFD"/>
<path transform="translate(166,201)" d="m0 0 7 1 1 2h-8l7 2v2l-5 2-5-2 1-6z" fill="#C29B66"/>
<path transform="translate(202,201)" d="m0 0 2 1-6 8-10 9h-2l2-4 8-7z" fill="#B2735B"/>
<path transform="translate(163,96)" d="m0 0 4 2 7 8-1 5-4-2-6-7v-2l4 2 4 4-7-8z" fill="#FDFDFD"/>
<path transform="translate(113,59)" d="m0 0 3 1-4 1v5l9 3 5 4 2 5-1 3-5-8-5-3-7-3v-6z" fill="#C19965"/>
<path transform="translate(124,54)" d="m0 0 15 1 2 2h-19l-1 4 6 3v2l-5-1-4-4 2-6z" fill="#BF9564"/>
<path transform="translate(73,163)" d="m0 0 5 2-1 2-4 1-2 4v4l2 1v2l-7 1 3-11z" fill="#C19967"/>
<path transform="translate(144,105)" d="m0 0 4 3h2l-1 3v2l4 3 1-2v4l-4-1-5-4zm-7 7 3 2v2l3-1v2h-2l-1 2-3-5z" fill="#FDFDFD"/>
<path transform="translate(28,88)" d="m0 0 10 1 2 2-1 3h-2l-1-2-1 1 6 4-1 3-5-4-7-6z" fill="#BD9063"/>
<path transform="translate(160,92)" d="m0 0 5 2 2 4h-2l7 8-1 2-6-7-5-2-2-5h3z" fill="#C8A675"/>
<path transform="translate(92,229)" d="m0 0h6l2 9-3-1v2h-4v-2h2l-3-7z" fill="#C09569"/>
<path transform="translate(64,230)" d="m0 0h6l1 4-5 3-6-1v-3l3-1z" fill="#C6A370"/>
<path transform="translate(152,146)" d="m0 0 4 2 16 14v2l-4-2-7-6-5-5-4-3z" fill="#B47C5E"/>
<path transform="translate(102,94)" d="m0 0 1 2h2l1-2v2l7-1v7l-2 5 2 1h-3v-10l-1 5-2-4-5-2z" fill="#FDFDFD"/>
<path transform="translate(429,200)" d="m0 0 6 1-1 6-1 1h-5v-7z" fill="#FDFDFD"/>
<path transform="translate(77,142)" d="m0 0 2 1-3 11-9-1-3-4v-2h2l4 4h4l2-7z" fill="#C29B66"/>
<path transform="translate(133,114)" d="m0 0h2l2 4 1-4 4 8v5l-3-1-6-10z" fill="#C5A26D"/>
<path transform="translate(173,40)" d="m0 0 3 1-6 12 1 2-6-2 4-6 1-4z" fill="#C29B66"/>
<path transform="translate(142,244)" d="m0 0 7 2 4 4v2l-5-1-7-4z" fill="#C39E67"/>
<path transform="translate(159,212)" d="m0 0 5 1 1 4-2 2h-5l-1-1v-5z" fill="#D0B28A"/>
<path transform="translate(118,202)" d="m0 0 5 5 5 12 1 2-4-1-7-16z" fill="#C39E67"/>
<path transform="translate(113,202)" d="m0 0 3 1 6 15 1 3-3-1-7-16z" fill="#C39E67"/>
<path transform="translate(797,201)" d="m0 0h6l1 4-1 3h-6z" fill="#FDFDFD"/>
<path transform="translate(935,200)" d="m0 0 7 2-1 4-1 2h-5z" fill="#FDFDFD"/>
<path transform="translate(159,180)" d="m0 0 4 1 1 7-5 2 1-4h-2v-5z" fill="#C39E67"/>
<path transform="translate(87,74)" d="m0 0 2 1-2 2 2 2-4 1-1 5h-3l-1-5z" fill="#BD916D"/>
<path transform="translate(126,244)" d="m0 0h6v2l-6 4-5 3-1-3z" fill="#C39E67"/>
<path transform="translate(77,200)" d="m0 0 14 3 3 3v5l-3 1 1-4-3-1 2-1-14-4z" fill="#BC8D62"/>
<path transform="translate(113,128)" d="m0 0 3 3 3 6v2h-5l-4-7v-2h2l1 1z" fill="#BC8967"/>
<path transform="translate(152,102)" d="m0 0 8 8v2h2v2l-4-2-4-4v-3h-2l3 5-1 2-4-4z" fill="#FDFDFD"/>
<path transform="translate(16,166)" d="m0 0 6 1 3 5v2l-8-1-1-3-2-2z" fill="#C39E67"/>
<path transform="translate(104,143)" d="m0 0 4 1 1 5-5 1v-3h3v-2l-6 2-1 5-4-2 5-6z" fill="#FDFDFD"/>
<path transform="translate(141,88)" d="m0 0 5 2 1 4-1 2h-5l3 1-2 4-4-4 2-3h5v-2l-3-1z" fill="#C19B66"/>
<path transform="translate(71,72)" d="m0 0h2l-2 6-3 7 5-1v-2h2l-2 4-7 1 1-7z" fill="#C19B66"/>
<path transform="translate(60,215)" d="m0 0h1l1 7 4 2v2h-5v-2h-9l4-2h2l-1-3h3z" fill="#FDFDFD"/>
<path transform="translate(193,203)" d="m0 0h1v5l-8 8-2 3h-2v-5l5-2z" fill="#B4785C"/>
<path transform="translate(195,174)" d="m0 0h4v4l-2-1-4 4v3l-3-2v-4l-3 1v-4l6 2z" fill="#C19B66"/>
<path transform="translate(99,109)" d="m0 0 1 3v7l1 8-4 1v-3h2l-2-6v-7z" fill="#C19B66"/>
<path transform="translate(135,99)" d="m0 0 4 1 2 1v2h-3l1 3-1 3-3-1-2-7z" fill="#C7A471"/>
<path transform="translate(207,211)" d="m0 0h2l-2 5-7 6-5 1 5-5 6-5z" fill="#D5BC97"/>
<path transform="translate(1986,207)" d="m0 0h6l1 5-1 1h-6z" fill="#FDFDFD"/>
<path transform="translate(1879,207)" d="m0 0h6l1 5-1 1h-6z" fill="#FDFDFD"/>
<path transform="translate(1740,207)" d="m0 0h6l1 5-1 1h-6z" fill="#FDFDFD"/>
<path transform="translate(342,201)" d="m0 0h6l-1 7h-5z" fill="#FDFDFD"/>
<path transform="translate(70,197)" d="m0 0 4 1 1 5-6 1-1-5z" fill="#D0B388"/>
<path transform="translate(81,139)" d="m0 0h2v3l3-2 1 5-4 2h-4v-6z" fill="#CCAB83"/>
<path transform="translate(83,99)" d="m0 0v3l-4 4v2l-6 3h-2l1-3 2-1-1-2 6-3z" fill="#BC8C62"/>
<path transform="translate(83,91)" d="m0 0 8 6-1 6h-2l1-4-3-1v-2l-5-2-1 2v-4z" fill="#FDFDFD"/>
<path transform="translate(118,239)" d="m0 0h2l-1 3-5 3h-2v2l-5 1 2-4h2v-2z" fill="#C39E67"/>
<path transform="translate(171,231)" d="m0 0m-1 1 1 2-14 7h-8l3-2 11-4z" fill="#FDFDFD"/>
<path transform="translate(60,185)" d="m0 0h6l2 4-1 2-6-1z" fill="#CFB088"/>
<path transform="translate(212,171)" d="m0 0 1 3-5 13-2 1v-7l5-9z" fill="#BF9464"/>
<path transform="translate(50,143)" d="m0 0 4 2 1 5-2 2-5-1-2-3v-4h2l1 4 3 2z" fill="#C39E67"/>
<path transform="translate(96,141)" d="m0 0 3 3v2l-8 4-3-1v-2l3-1 1-2h3z" fill="#FDFDFD"/>
<path transform="translate(113,148)" d="m0 0 2 3v7l-2-1v-5l-6 2-3 2-2-3h2l1-2h4l1-2 3 2z" fill="#FDFDFD"/>
<path transform="translate(113,78)" d="m0 0 1 3-2 4-1-3-2 1 1 4-4 2v-3h2v-2h-2l2-5z" fill="#BE9163"/>
<path transform="translate(179,44)" d="m0 0 3 1-3 4 5 1-3 5-2-3h-4l2-5z" fill="#C09765"/>
<path transform="translate(179,229)" d="m0 0 7 1v6h-5v-3h-2z" fill="#C4A06B"/>
<path transform="translate(145,158)" d="m0 0h2l2 6v5l-4-1-3-8h2l2 4z" fill="#C39E67"/>
<path transform="translate(149,90)" d="m0 0 7 4-1 5-5-1-1-4h3l-3-2z" fill="#C4A06B"/>
<path transform="translate(202,85)" d="m0 0h2v2l7-1 4 2-3 3-3-1v-2h-4v2h-2z" fill="#D4BB94"/>
<path transform="translate(176,216)" d="m0 0 3 1v7h-4l-1-7z" fill="#C39E67"/>
<path transform="translate(143,213)" d="m0 0 3 3 1 6h-6l-2-4h4z" fill="#BE9364"/>
<path transform="translate(1440,207)" d="m0 0h5l1 5-1 1h-5z" fill="#FDFDFD"/>
<path transform="translate(122,173)" d="m0 0 4 1-1 4-5 2-1-5z" fill="#C6A36F"/>
<path transform="translate(32,162)" d="m0 0 4 1-2 3 1 3h-4v3h-2v-7z" fill="#C39E67"/>
<path transform="translate(168,154)" d="m0 0 7 6 8 7h-3l-9-7-4-4z" fill="#C39E67"/>
<path transform="translate(108,222)" d="m0 0 19 1v1l-6 1h-11l-2-1z" fill="#C09665"/>
<path transform="translate(70,189)" d="m0 0 6 2 4 3h-3l1 4-3-1v-2l-6-2 3-1-1-1z" fill="#C19A66"/>
<path transform="translate(183,181)" d="m0 0 4 1-1 5-5 1 1-6z" fill="#FDFDFD"/>
<path transform="translate(124,60)" d="m0 0h7l6 3 3 3v2l-5-1v-3l-10-2z" fill="#C39E67"/>
<path transform="translate(1908,214)" d="m0 0h8v4h-8z" fill="#FDFDFD"/>
<path transform="translate(206,93)" d="m0 0 5 1-1 3 10-2-1 2-7 3-2 1-1-5-3-1z" fill="#C39E67"/>
<path transform="translate(88,240)" d="m0 0 5 1v3h-10v-2z" fill="#C39E67"/>
<path transform="translate(108,152)" d="m0 0h5v5h-3l-1-2-2 4h-2l1-5z" fill="#C19A65"/>
<path transform="translate(120,127)" d="m0 0 4 4 4 8v2h-2l-6-12z" fill="#BB8A61"/>
<path transform="translate(147,76)" d="m0 0 9 5 3 4-1 3-5-6-6-4z" fill="#C39E67"/>
<path transform="translate(172,163)" d="m0 0 12 7v2l-6-2-7-5z" fill="#C19A65"/>
<path transform="translate(228,164)" d="m0 0 4 1v4h-7v-3z" fill="#C39E67"/>
<path transform="translate(104,111)" d="m0 0 1 3 1 9h3l-1 4-3-1-2-5v-9z" fill="#FDFDFD"/>
<path transform="translate(105,90)" d="m0 0 5 2v3l-5 1h-2z" fill="#D2B692"/>
<path transform="translate(118,84)" d="m0 0 1 3-3 6 1 2-1 6h-1l-2-8 4-8z" fill="#FDFDFD"/>
<path transform="translate(111,72)" d="m0 0h3v2l4-1-2 5-1-2-3 2-3-1 2-2h-2v-2z" fill="#B6865F"/>
<path transform="translate(50,209)" d="m0 0h2v2l3 1 2 7-9-2v-1h6l-5-6z" fill="#FDFDFD"/>
<path transform="translate(213,199)" d="m0 0h3l1 4-5 1-3-1 1-3z" fill="#C39E67"/>
<path transform="translate(102,134)" d="m0 0h2l6 8 2 3v3h-2l-5-10-3-1z" fill="#FDFDFD"/>
<path transform="translate(127,96)" d="m0 0h2l1 5-2 5 1 3-5-2v-2h2z" fill="#DFCBAF"/>
<path transform="translate(85,87)" d="m0 0 1 2-6 2-2 5-3-1 1-5z" fill="#FDFDFD"/>
<path transform="translate(194,199)" d="m0 0 2 1-6 7-4 5h-2v-2h2l2-5z" fill="#B0805C"/>
<path transform="translate(202,201)" d="m0 0 2 1-6 8-2 1-2-2 5-5z" fill="#C19965"/>
<path transform="translate(123,125)" d="m0 0 4 4 3 7-1 3-6-12z" fill="#BF9564"/>
<path transform="translate(157,208)" d="m0 0h5v2l-7 1 1 3h-3l-1-4z" fill="#C19965"/>
<path transform="translate(1908,207)" d="m0 0h7v4h-6z" fill="#FDFDFD"/>
<path transform="translate(101,128)" d="m0 0 4 4 5 7v2l-4-2-5-9z" fill="#B77F5E"/>
<path transform="translate(25,95)" d="m0 0 1 2-1 2 4 1-4 1v4l-4-1 3-8z" fill="#BD9063"/>
<path transform="translate(74,92)" d="m0 0 4 4 1-3 3 4-1 2-6-2-3-3z" fill="#BD9063"/>
<path transform="translate(92,89)" d="m0 0h5l-3 3-6 2-4-4h6z" fill="#FDFDFD"/>
<path transform="translate(131,87)" d="m0 0 4 1v5h-4l-1-5z" fill="#C1986A"/>
<path transform="translate(204,210)" d="m0 0h2l-2 5-5 5h-2l2-4z" fill="#B67D5E"/>
<path transform="translate(126,208)" d="m0 0 4 4 4 9-4-2-4-9z" fill="#C39E67"/>
<path transform="translate(982,200)" d="m0 0h5l1 4h-7z" fill="#FDFDFD"/>
<path transform="translate(65,156)" d="m0 0 1 3 4-1-1 9-2-2-3-6z" fill="#C39E67"/>
<path transform="translate(47,142)" d="m0 0h3l2 4v4l-4-2-1-2 1-2-2-1z" fill="#FDFDFD"/>
</svg>
